HIERARCHY
ROOT hip
{
	OFFSET 0.000000 0.000000 0.000000 
	CHANNELS 6 Xposition Yposition Zposition Xrotation Zrotation Yrotation
	JOINT abdomen
	{
		OFFSET 0.000000 3.402643 0.000000 
		CHANNELS 3 Xrotation Zrotation Yrotation
		JOINT chest
		{
			OFFSET 0.000000 8.438565 -0.680529 
			CHANNELS 3 Xrotation Zrotation Yrotation
			JOINT neck
			{
				OFFSET 0.000000 10.207942 -0.272212 
				CHANNELS 3 Xrotation Zrotation Yrotation
				JOINT head
				{
					OFFSET 0.000000 3.130431 0.000000 
					CHANNELS 3 Xrotation Zrotation Yrotation
					End Site
					{
						OFFSET 0.000000 3.130435 0.000000 
					}
				}
			}
			JOINT lCollar
			{
				OFFSET 3.470700 6.669187 -0.816635 
				CHANNELS 3 Yrotation Zrotation Xrotation
				JOINT lShldr
				{
					OFFSET 3.198488 0.000000 0.000000 
					CHANNELS 3 Zrotation Yrotation Xrotation
					JOINT lForeArm
					{
						OFFSET 10.139888 0.000000 0.000000 
						CHANNELS 3 Yrotation Zrotation Xrotation
						JOINT lHand
						{
							OFFSET 8.370511 0.000000 0.000000 
							CHANNELS 3 Zrotation Yrotation Xrotation
							End Site
							{
								OFFSET 4.083176 0.000000 0.000000 
							}
						}
					}
				}
			}
			JOINT rCollar
			{
				OFFSET -3.470700 6.669187 -0.816635 
				CHANNELS 3 Yrotation Zrotation Xrotation
				JOINT rShldr
				{
					OFFSET -3.198488 0.000000 0.000000 
					CHANNELS 3 Zrotation Yrotation Xrotation
					JOINT rForeArm
					{
						OFFSET -10.139888 0.000000 0.000000 
						CHANNELS 3 Yrotation Zrotation Xrotation
						JOINT rHand
						{
							OFFSET -8.370511 0.000000 0.000000 
							CHANNELS 3 Zrotation Yrotation Xrotation
							End Site
							{
								OFFSET -4.083176 0.000000 0.000000 
							}
						}
					}
				}
			}
		}
	}
	JOINT lThigh
	{
		OFFSET 5.308129 -1.633274 1.361059 
		CHANNELS 3 Xrotation Zrotation Yrotation
		JOINT lShin
		{
			OFFSET -2.041588 -20.007561 0.000000 
			CHANNELS 3 Xrotation Zrotation Yrotation
			JOINT lFoot
			{
				OFFSET 0.000000 -19.190928 -1.224953 
				CHANNELS 3 Xrotation Yrotation Zrotation
				End Site
				{
					OFFSET 0.000000 -2.449906 4.627600 
				}
			}
		}
	}
	JOINT rThigh
	{
		OFFSET -5.308129 -1.633274 1.361059 
		CHANNELS 3 Xrotation Zrotation Yrotation
		JOINT rShin
		{
			OFFSET 2.041588 -20.007561 0.000000 
			CHANNELS 3 Xrotation Zrotation Yrotation
			JOINT rFoot
			{
				OFFSET 0.000000 -19.190928 -1.224953 
				CHANNELS 3 Xrotation Yrotation Zrotation
				End Site
				{
					OFFSET 0.000000 -2.449906 4.627600 
				}
			}
		}
	}
}
MOTION
Frames: 20
Frame Time: 0.016667
-0.196838 41.137318 2.639048 -6.750380 3.423430 -1.957560 -18.401699 1.395190 0.440990 15.635700 3.434590 0.203043 10.654300 4.385760 -2.327500 11.368200 6.958990 -0.693895 2.000000 -2.000000 0.000000 -89.392601 21.626499 -169.513000 100.538002 -0.188060 0.153819 -179.916000 -179.884995 2.092020 -2.000000 2.000000 0.000000 89.838402 -18.661100 -168.074005 -112.851997 0.165546 0.107232 -0.073656 0.054361 -156.725998 -18.663088 -7.400448 2.366932 46.808609 1.855750 3.345466 -16.554846 2.954749 0.635450 -17.407490 -1.005558 3.996531 89.879333 0.969986 -4.588315 1.588626 -12.388711 -0.248692 
-0.300170 40.971535 5.330380 -6.147130 3.903280 -1.913890 -18.791201 0.871870 -0.121336 15.234700 3.412990 -0.141398 11.172600 4.636000 -1.836420 11.576800 7.061800 -0.449962 2.000000 -2.000000 0.000000 -89.222397 16.861200 -169.395004 99.336502 -0.191085 0.154349 -179.917007 -179.886002 2.384980 -2.000000 2.000000 0.000000 91.579399 -20.639200 -169.953995 -108.046997 0.175518 0.110950 -0.074460 0.056542 -157.556000 -16.608038 -7.954072 2.391775 48.065922 1.786966 3.418471 -19.724701 4.172302 1.308349 -22.549824 -2.240589 3.378514 89.976097 1.122817 -4.662737 -1.214304 -11.714399 -0.593974 
-0.355560 41.036694 8.155103 -5.894260 4.128520 -4.888340 -18.917900 1.178330 0.473328 15.291100 3.802290 0.167542 11.869300 4.237060 -1.334260 11.919800 6.987680 -0.202436 2.000000 -2.000000 0.000000 -90.500397 13.986800 -170.774994 101.260002 -0.186246 0.153469 -179.917999 -179.886993 3.058810 -2.000000 2.000000 0.000000 90.781197 -23.227100 -169.940994 -107.237000 0.177230 0.111494 -0.078559 0.066416 -161.375000 -13.138729 -8.311748 4.295845 47.356903 1.860213 3.371717 -20.553886 5.849117 2.233305 -26.631002 -1.412472 5.690876 86.325554 0.882101 -4.640457 -3.315859 -11.043566 -0.652491 
-0.410950 41.101715 10.979824 -5.651200 4.363540 -7.872260 -19.032600 1.484710 1.068080 15.347400 4.181940 0.478756 12.566000 3.829780 -0.844452 12.272600 6.913240 0.035657 2.000000 -2.000000 0.000000 88.319099 168.917007 7.922960 103.194000 -0.181415 0.152422 -179.919006 -179.897995 3.732610 -2.000000 2.000000 0.000000 89.973701 -25.815100 -169.882004 -106.426003 0.178949 0.112014 -0.083294 0.075970 -165.182999 -9.722675 -8.762797 6.196968 46.744717 1.941291 3.314301 -21.453800 7.526244 3.220710 -30.710712 -0.406165 7.927912 82.627579 0.629788 -4.612308 -5.366224 -10.414505 -0.722201 
-0.587480 41.459087 13.875949 -5.145300 4.834050 -7.670360 -19.283300 1.581140 0.212448 15.516200 5.214250 0.048686 12.365000 2.824410 -0.253904 12.198400 6.634250 0.319452 2.000000 -2.000000 0.000000 87.293999 170.511993 6.637640 106.933998 -0.172182 0.149936 -179.912994 -179.882004 0.705302 -2.000000 2.000000 0.000000 88.082298 -28.542500 -168.697998 -108.389000 0.174799 0.110713 -0.085241 0.089252 -166.619003 -6.496558 -9.707264 5.402553 45.490231 2.105860 3.198179 -19.399536 7.333262 2.867112 -32.620636 -0.474771 7.459004 75.475487 0.051725 -4.477122 -6.487319 -10.491539 -0.704347 
-0.764010 41.816463 16.772141 -4.639050 5.304930 -7.470820 -19.530199 1.679840 -0.636934 15.683900 6.247050 -0.383984 12.149700 1.828070 0.343911 12.124400 6.355160 0.593038 2.000000 -2.000000 0.000000 86.307899 172.126007 5.391450 110.674004 -0.163132 0.146853 -179.908005 -179.886002 -2.312300 -2.000000 2.000000 0.000000 86.064201 -31.240900 -167.365997 -110.351997 0.170696 0.109271 -0.087277 0.092719 -168.054001 -3.307054 -10.609262 4.560597 44.393051 2.257945 3.108032 -17.445921 7.139640 2.478833 -34.694389 -0.552831 6.962566 68.363197 -0.530024 -4.262308 -7.523800 -10.527993 -0.746282 
-0.905374 42.424294 19.864813 -4.392440 5.102240 -5.634850 -19.586901 1.329630 -2.182930 16.382000 6.175110 -1.123160 12.411600 1.390730 0.907030 12.240400 6.246740 0.873947 2.000000 -2.000000 0.000000 86.727898 172.723007 4.865510 114.356003 -0.154438 0.143248 -179.904007 -179.882996 -3.865030 -2.000000 2.000000 0.000000 84.601898 -33.118401 -166.320999 -111.914001 0.167467 0.108023 -0.086075 0.090697 -167.214996 0.056525 -10.320522 2.566093 42.873596 2.535155 2.943452 -11.662030 4.948467 1.164896 -34.020123 -0.896851 5.252447 58.248569 -1.289369 -3.879872 -4.662693 -10.212564 -0.207514 
-1.046736 43.032249 22.957483 -4.155770 4.889520 -3.801640 -19.628500 0.992464 -3.723150 17.070101 6.102050 -1.855420 12.674200 0.955365 1.475730 12.356400 6.138350 1.154420 2.000000 -2.000000 0.000000 87.147903 173.328995 4.339610 118.028000 -0.146016 0.139104 -179.901001 -179.880005 -5.417780 -2.000000 2.000000 0.000000 83.071404 -34.976501 -165.192993 -113.467003 0.164293 0.106696 -0.084917 0.088682 -166.384995 3.460685 -9.935628 0.542560 41.467537 2.836235 2.786350 -6.123475 2.618469 0.058829 -33.461365 -1.243093 3.549493 48.514812 -1.966324 -3.357284 -2.073259 -9.830236 0.318159 
-1.268231 43.496281 26.122614 -4.116030 4.802090 -3.792030 -19.947201 0.805697 -4.250600 17.296900 5.937710 -2.104340 13.549500 0.897610 1.732550 12.671000 6.152020 1.268860 2.000000 -2.000000 0.000000 88.856796 172.477997 5.030950 120.967003 -0.139475 0.135404 -179.901993 -179.880005 -5.212700 -2.000000 2.000000 0.000000 82.401604 -36.959099 -165.100006 -115.010002 0.161175 0.105292 -0.084422 0.078034 -166.022995 6.514541 -9.749697 -0.780246 39.295204 3.217613 2.579221 2.307370 0.300367 -0.276491 -31.801350 -1.065754 3.003474 38.270988 -2.595483 -2.727142 4.907341 -9.833960 1.611283 
-1.489740 43.960316 29.287853 -4.076370 4.724400 -3.773470 -20.254299 0.628250 -4.781170 17.523701 5.773210 -2.345820 14.424200 0.840031 1.997110 12.985600 6.165480 1.393250 2.000000 -2.000000 0.000000 90.575401 171.656006 5.741900 123.897003 -0.133154 0.131386 -179.901993 -179.880997 -4.997860 -2.000000 2.000000 0.000000 81.722397 -38.941799 -164.983002 -116.553001 0.158097 0.103806 -0.083933 0.077148 -165.662003 10.177310 -9.470767 -2.219599 36.048080 3.465536 2.352431 11.179244 -2.028549 -0.137563 -30.349556 -0.820365 2.461693 28.579933 -3.198962 -2.014167 11.559328 -9.654998 2.975576 
-1.688545 44.204731 32.397717 -3.636960 5.009470 -3.130140 -20.920401 0.418303 -4.980140 17.387501 5.538450 -2.454120 15.269100 0.718281 1.742360 13.269800 6.131100 1.243190 2.000000 -2.000000 0.000000 92.645897 170.664993 7.604800 125.156998 -0.130500 0.129561 -179.904999 -179.882996 -3.493940 -2.000000 2.000000 0.000000 81.953697 -41.145699 -166.343002 -118.115997 0.155021 0.102216 -0.083684 0.076692 -165.475998 11.197434 -9.612864 -5.147301 35.656670 3.542361 2.320934 14.900681 -5.774724 0.761371 -29.214676 -1.129327 1.102896 21.801544 -3.821128 -1.446326 13.857353 -9.279443 3.584598 
-1.887360 44.449146 35.507347 -3.187490 5.304330 -2.491880 -21.595900 0.205627 -5.185740 17.261299 5.303770 -2.550640 16.104300 0.615374 1.489740 13.544200 6.096810 1.091780 2.000000 -2.000000 0.000000 -85.244400 10.247200 -170.483002 126.416000 -0.127888 0.127677 -179.908005 -179.886002 -1.990040 -2.000000 2.000000 0.000000 82.263702 -43.339699 -167.753998 -119.688004 0.151972 0.100533 -0.083423 0.076211 -165.281006 12.125025 -9.839020 -8.068286 35.775715 3.715687 2.294622 18.266365 -9.434833 1.825255 -27.379087 -1.503790 -0.218979 13.467853 -4.146273 -0.857299 16.971361 -8.853550 4.024925 
-2.085784 44.316914 38.427578 -3.348660 6.034680 -2.216750 -21.952700 0.074281 -4.588210 16.801300 5.145240 -2.299670 16.599701 0.707716 0.761463 13.798900 6.062820 0.714437 2.000000 -2.000000 0.000000 -83.681198 10.613400 -168.412003 125.615997 -0.129544 0.128881 -179.910995 -179.878998 -0.700963 -2.000000 2.000000 0.000000 83.773598 -44.611500 -170.957001 -120.575996 0.150269 0.099544 -0.081447 0.072431 -163.757996 11.664874 -10.650351 -9.689660 39.702530 3.472015 2.515849 14.293304 -8.523288 0.922638 -27.342377 -2.018556 0.058791 14.364656 -4.119110 -0.910533 19.020645 -9.731567 4.793764 
-2.284207 44.184677 41.347588 -3.510870 6.774490 -1.947270 -22.317499 -0.049933 -3.999950 16.351200 4.986610 -2.045350 17.096600 0.808241 0.029061 14.044000 6.038580 0.326674 2.000000 -2.000000 0.000000 -82.107903 10.921000 -166.332993 124.805000 -0.131237 0.130076 -179.912994 -179.882004 0.588115 -2.000000 2.000000 0.000000 -94.580299 -134.184998 5.719340 -121.464996 0.148581 0.098530 -0.079560 0.068574 -162.223999 11.202475 -11.475224 -11.342670 43.769535 3.217057 2.759913 10.193099 -7.569852 0.065403 -27.327818 -2.534310 0.355119 15.293659 -4.108281 -0.995636 21.054609 -10.562557 5.601038 
-2.489325 43.828983 44.179974 -4.637250 6.278370 -1.884260 -21.936100 0.149519 -3.133610 16.188400 4.372080 -1.602950 16.917801 1.433940 -0.799009 14.114500 6.123690 -0.060974 2.000000 -2.000000 0.000000 -81.482399 11.402600 -165.014999 122.872002 -0.135343 0.132829 -179.916000 -179.884995 2.258030 -2.000000 2.000000 0.000000 -92.775597 -135.003998 2.156840 -120.625000 0.150175 0.099489 -0.078020 0.065219 -160.906006 9.980074 -10.809384 -10.538194 50.046227 2.786750 3.111473 7.717637 -5.996035 -0.164120 -26.559172 -2.012566 -0.952989 20.134197 -3.948884 -1.328724 17.384701 -4.310286 2.662378 
-2.694466 43.473412 47.012466 -5.761830 5.781390 -1.803040 -21.559700 0.330336 -2.261760 16.025400 3.757780 -1.156330 16.732500 2.062290 -1.632440 14.185100 6.208760 -0.448422 2.000000 -2.000000 0.000000 -80.837196 11.874400 -163.688004 120.938004 -0.139539 0.135442 -179.919006 -179.899002 3.918160 -2.000000 2.000000 0.000000 -91.079201 -135.910995 -1.317530 -119.776001 0.151802 0.100436 -0.076559 0.061829 -159.587997 8.458005 -10.085757 -9.635919 56.846832 2.384696 3.422461 4.994287 -4.496424 -0.385800 -25.247511 -1.549575 -2.202080 23.925468 -3.587611 -1.653046 14.514028 2.101932 0.036736 
-2.941025 43.063858 49.689709 -6.724850 3.927950 -1.360800 -21.354601 0.949127 -1.807320 15.548800 3.200650 -0.846283 16.698500 2.205240 -2.263430 14.232100 6.111600 -0.743557 2.000000 -2.000000 0.000000 -81.941704 13.113400 -164.207993 117.587997 -0.147009 0.139629 -179.921005 -179.901001 5.011910 -2.000000 2.000000 0.000000 -91.018898 -138.522003 -2.818210 -116.601997 0.158000 0.103757 -0.077048 0.062988 -160.037003 5.996681 -7.359637 -8.139695 63.662842 1.893683 3.704768 3.215229 -2.285523 -0.215395 -22.963240 0.847824 -1.690475 27.632887 -3.126895 -1.969218 7.648513 0.846066 0.349394 
-3.187574 42.654442 52.367069 -7.700470 2.090370 -0.878097 -21.139500 1.563520 -1.337110 15.082000 2.653870 -0.537191 16.665001 2.348770 -2.894300 14.289200 6.023870 -1.036100 2.000000 -2.000000 0.000000 -83.065804 14.342600 -164.768005 114.228996 -0.154734 0.143382 -179.923004 -179.903000 6.095900 -2.000000 2.000000 0.000000 -91.055298 -141.132996 -4.250940 -113.438004 0.164352 0.106722 -0.077546 0.064143 -160.485992 3.724527 -4.525655 -6.762673 70.112816 1.356078 3.940726 1.685519 -0.111210 -0.029928 -20.949888 3.280552 -1.056066 31.883148 -2.784486 -2.343343 0.521375 -0.403575 0.589347 
-3.394366 42.568729 54.776272 -7.607470 -0.193593 -0.159691 -21.288000 2.337270 -1.109110 14.546200 2.224050 -0.312054 17.093599 3.298860 -3.377220 14.579900 6.286620 -1.269110 2.000000 -2.000000 0.000000 -85.528999 15.753600 -166.921997 109.755997 -0.165334 0.147664 -179.912003 -179.891006 5.070520 -2.000000 2.000000 0.000000 -92.197800 -145.526993 -4.049050 -108.710999 0.174122 0.110486 -0.076161 0.060869 -159.216995 -0.847899 -1.392239 -6.275722 74.513336 0.883972 4.101694 -0.067855 0.791052 0.164657 -19.548168 6.395863 -0.562537 34.351807 -2.535609 -2.554588 -2.092140 -3.783611 0.378124 
-3.601158 42.483013 57.185596 -7.536330 -2.468750 0.560577 -21.439100 3.109840 -0.884589 14.010400 1.794870 -0.088642 17.510799 4.262940 -3.860990 14.871100 6.548720 -1.488650 2.000000 -2.000000 0.000000 -88.070099 17.076599 -169.151001 105.283997 -0.176236 0.151107 -179.919998 -179.899002 4.035350 -2.000000 2.000000 0.000000 -93.260300 -149.912003 -3.969960 -103.995003 0.184148 0.113427 -0.074849 0.057565 -157.947006 -5.413233 1.734765 -6.029559 79.041840 0.383658 4.259659 -1.920911 1.711759 0.324782 -18.298836 9.482393 0.003661 37.048679 -2.311112 -2.765889 -4.797458 -7.096354 -0.036741 
